<svg id="_Layer_" data-name="&lt;Layer&gt;" xmlns="http://www.w3.org/2000/svg" viewBox="0 0 2880 1920"><defs><style>.cls-1{fill:none;}.cls-2{fill:#7338d9;}.cls-3{fill:#9b60ff;}.cls-4{fill:#8449ea;}.cls-5{fill:#854aeb;}.cls-6{fill:#ab70ff;}.cls-7{fill:#955bfb;}</style></defs><rect class="cls-1" width="480" height="480"/><rect class="cls-2" width="480" height="480"/><polygon class="cls-3" points="240 0 480 0 480 240 240 0"/><polygon class="cls-3" points="0 0 240 0 240 240 0 0"/><rect class="cls-1" y="480" width="480" height="480"/><rect class="cls-2" y="480" width="480" height="480"/><path class="cls-4" d="M0,960,126.86,833.14A160,160,0,0,0,353.22,607l-.08-.09L480,480V960Z"/><path class="cls-4" d="M240,560a159.5,159.5,0,0,1,113.14,46.86L126.86,833.14A160,160,0,0,1,240,560Z"/><rect class="cls-1" y="960" width="480" height="480"/><polygon class="cls-2" points="0 1080 0 1200 240 1200 480 960 240 960 0 960 0 1080"/><polygon class="cls-4" points="0 1200 0 1320 0 1440 240 1440 480 1440 240 1200 0 1200"/><polygon class="cls-4" points="480 1200 480 1080 480 960 240 1200 480 1200"/><polygon class="cls-2" points="480 1440 480 1320 480 1200 240 1200 480 1440"/><rect class="cls-1" y="1440" width="480" height="480"/><rect class="cls-5" y="1440" width="480" height="480"/><polygon class="cls-6" points="0 1920 0 1680 240 1920 0 1920"/><polygon class="cls-6" points="0 1680 0 1440 240 1680 0 1680"/><polygon class="cls-6" points="480 1680 480 1920 240 1680 480 1680"/><rect class="cls-1" x="480" width="480" height="480"/><rect class="cls-7" x="480" width="480" height="480"/><polygon class="cls-4" points="480 240 480 0 960 0 960 240 720 240 480 240"/><polygon class="cls-4" points="720 240 960 240 840 360 720 240"/><rect class="cls-1" x="480" y="480" width="480" height="480"/><rect class="cls-3" x="480" y="480" width="480" height="480"/><polygon class="cls-6" points="655 640 655 800 805 720 655 640"/><rect class="cls-1" x="480" y="960" width="480" height="480"/><polygon class="cls-3" points="600 960 720 960 720 1200 480 1440 480 1200 480 960 600 960"/><polygon class="cls-4" points="720 960 840 960 960 960 960 1200 960 1440 720 1200 720 960"/><polygon class="cls-4" points="720 1440 600 1440 480 1440 720 1200 720 1440"/><polygon class="cls-3" points="960 1440 840 1440 720 1440 720 1200 960 1440"/><rect class="cls-1" x="480" y="1440" width="480" height="480"/><rect class="cls-5" x="480" y="1440" width="480" height="480"/><polygon class="cls-7" points="960 1447.07 960 1440 952.93 1440 720 1672.93 487.07 1440 480 1440 480 1447.07 712.93 1680 480 1912.93 480 1920 487.07 1920 720 1687.07 952.93 1920 960 1920 960 1912.93 727.07 1680 960 1447.07"/><rect class="cls-1" x="960" width="480" height="480"/><rect class="cls-2" x="960" width="480" height="480"/><path class="cls-7" d="M1440,470c-127-.14-229.86-103-230-230,.14-127,103-229.86,230-230V0c-132.55,0-240,107.45-240,240s107.45,240,240,240Z"/><path class="cls-7" d="M1220,240c0,121.5,98.5,220,220,220V450c-115.93-.13-209.87-94.07-210-210,.13-115.93,94.07-209.87,210-210V20C1318.5,20,1220,118.5,1220,240Z"/><path class="cls-7" d="M1240,240c0,110.46,89.54,200,200,200V430c-104.89-.12-189.88-85.11-190-190,.12-104.89,85.11-189.88,190-190V40C1329.54,40,1240,129.54,1240,240Z"/><path class="cls-7" d="M1260,240a180,180,0,0,0,180,180V410a170,170,0,0,1,0-340V60A180,180,0,0,0,1260,240Z"/><path class="cls-7" d="M1280,240a160,160,0,0,0,160,160V390a150,150,0,0,1,0-300V80A160,160,0,0,0,1280,240Z"/><path class="cls-7" d="M1300,240a140,140,0,0,0,140,140V370a130,130,0,0,1,0-260V100A140,140,0,0,0,1300,240Z"/><path class="cls-7" d="M1320,240a120,120,0,0,0,120,120V350a110,110,0,0,1,0-220V120A120,120,0,0,0,1320,240Z"/><path class="cls-7" d="M1340,240a100,100,0,0,0,100,100V330a90,90,0,0,1,0-180V140A100,100,0,0,0,1340,240Z"/><path class="cls-7" d="M1360,240a80,80,0,0,0,80,80V310a70,70,0,0,1,0-140V160A80,80,0,0,0,1360,240Z"/><path class="cls-7" d="M1380,240a60,60,0,0,0,60,60V290a50,50,0,0,1,0-100V180A60,60,0,0,0,1380,240Z"/><path class="cls-7" d="M1400,240a40,40,0,0,0,40,40V270a30,30,0,0,1,0-60V200A40,40,0,0,0,1400,240Z"/><path class="cls-7" d="M1420,240a20,20,0,0,0,20,20V250a10,10,0,0,1,0-20V220A20,20,0,0,0,1420,240Z"/><rect class="cls-1" x="960" y="480" width="480" height="480"/><polygon class="cls-5" points="1280 480 1440 480 1280 720 1280 480"/><polygon class="cls-6" points="960 720 1120 480 1120 720 960 720"/><polygon class="cls-5" points="1120 480 1280 480 1120 720 1120 480"/><polygon class="cls-5" points="960 480 1120 480 960 720 960 480"/><polygon class="cls-6" points="1120 720 1280 480 1280 720 1120 720"/><polygon class="cls-6" points="1440 480 1440 720 1280 720 1440 480"/><polygon class="cls-5" points="960 960 960 720 1120 720 960 960"/><polygon class="cls-6" points="1120 960 960 960 1120 720 1120 960"/><polygon class="cls-5" points="1280 720 1120 960 1120 720 1280 720"/><polygon class="cls-5" points="1280 720 1440 720 1280 960 1280 720"/><polygon class="cls-6" points="1280 960 1120 960 1280 720 1280 960"/><polygon class="cls-6" points="1280 960 1440 720 1440 960 1280 960"/><rect class="cls-1" x="960" y="960" width="480" height="480"/><rect class="cls-4" x="960" y="1420" width="480" height="20"/><rect class="cls-6" x="960" y="1430" width="480" height="10"/><rect class="cls-4" x="960" y="1400" width="480" height="20"/><rect class="cls-6" x="960" y="1410" width="480" height="10"/><rect class="cls-4" x="960" y="1380" width="480" height="20"/><rect class="cls-6" x="960" y="1390" width="480" height="10"/><rect class="cls-4" x="960" y="1360" width="480" height="20"/><rect class="cls-6" x="960" y="1370" width="480" height="10"/><rect class="cls-4" x="960" y="1340" width="480" height="20"/><rect class="cls-6" x="960" y="1350" width="480" height="10"/><rect class="cls-4" x="960" y="1320" width="480" height="20"/><rect class="cls-6" x="960" y="1330" width="480" height="10"/><rect class="cls-4" x="960" y="1300" width="480" height="20"/><rect class="cls-6" x="960" y="1310" width="480" height="10"/><rect class="cls-4" x="960" y="1280" width="480" height="20"/><rect class="cls-6" x="960" y="1290" width="480" height="10"/><rect class="cls-4" x="960" y="1260" width="480" height="20"/><rect class="cls-6" x="960" y="1270" width="480" height="10"/><rect class="cls-4" x="960" y="1240" width="480" height="20"/><rect class="cls-6" x="960" y="1250" width="480" height="10"/><rect class="cls-4" x="960" y="1220" width="480" height="20"/><rect class="cls-6" x="960" y="1230" width="480" height="10"/><rect class="cls-4" x="960" y="1200" width="480" height="20"/><rect class="cls-6" x="960" y="1210" width="480" height="10"/><rect class="cls-4" x="960" y="1180" width="480" height="20"/><rect class="cls-6" x="960" y="1190" width="480" height="10"/><rect class="cls-4" x="960" y="1160" width="480" height="20"/><rect class="cls-6" x="960" y="1170" width="480" height="10"/><rect class="cls-4" x="960" y="1140" width="480" height="20"/><rect class="cls-6" x="960" y="1150" width="480" height="10"/><rect class="cls-4" x="960" y="1120" width="480" height="20"/><rect class="cls-6" x="960" y="1130" width="480" height="10"/><rect class="cls-4" x="960" y="1100" width="480" height="20"/><rect class="cls-6" x="960" y="1110" width="480" height="10"/><rect class="cls-4" x="960" y="1080" width="480" height="20"/><rect class="cls-6" x="960" y="1090" width="480" height="10"/><rect class="cls-4" x="960" y="1060" width="480" height="20"/><rect class="cls-6" x="960" y="1070" width="480" height="10"/><rect class="cls-4" x="960" y="1040" width="480" height="20"/><rect class="cls-6" x="960" y="1050" width="480" height="10"/><rect class="cls-4" x="960" y="1020" width="480" height="20"/><rect class="cls-6" x="960" y="1030" width="480" height="10"/><rect class="cls-4" x="960" y="1000" width="480" height="20"/><rect class="cls-6" x="960" y="1010" width="480" height="10"/><rect class="cls-4" x="960" y="980" width="480" height="20"/><rect class="cls-6" x="960" y="990" width="480" height="10"/><rect class="cls-4" x="960" y="960" width="480" height="20"/><rect class="cls-6" x="960" y="970" width="480" height="10"/><rect class="cls-1" x="960" y="1440" width="480" height="480"/><rect class="cls-3" x="960" y="1440" width="480" height="480"/><path class="cls-5" d="M962.73,1920l32.49-38.15c18-21.14,36.17-42.43,58-59.58,18.23-14.31,38.89-25.62,55.4-41.89,22.12-21.78,35.95-51.64,61-70,14.89-10.94,32.78-17,48.43-26.87,44.07-27.71,64.73-80.61,101-118,18.4-19,40.63-33.73,60.54-51.12a388.12,388.12,0,0,0,60.45-68.6V1920Z"/><rect class="cls-1" x="1440" width="480" height="480"/><polygon class="cls-4" points="1920 120 1920 240 1680 240 1440 0 1680 0 1920 0 1920 120"/><polygon class="cls-3" points="1920 240 1920 360 1920 480 1680 480 1440 480 1680 240 1920 240"/><polygon class="cls-3" points="1440 240 1440 120 1440 0 1680 240 1440 240"/><polygon class="cls-4" points="1440 480 1440 360 1440 240 1680 240 1440 480"/><rect class="cls-1" x="1440" y="480" width="480" height="480"/><rect class="cls-4" x="1440" y="480" width="480" height="480"/><polygon class="cls-7" points="1522.5 895 1517.5 895 1517.5 887.5 1510 887.5 1510 882.5 1517.5 882.5 1517.5 875 1522.5 875 1522.5 882.5 1530 882.5 1530 887.5 1522.5 887.5 1522.5 895"/><polygon class="cls-7" points="1682.5 895 1677.5 895 1677.5 887.5 1670 887.5 1670 882.5 1677.5 882.5 1677.5 875 1682.5 875 1682.5 882.5 1690 882.5 1690 887.5 1682.5 887.5 1682.5 895"/><polygon class="cls-7" points="1842.5 895 1837.5 895 1837.5 887.5 1830 887.5 1830 882.5 1837.5 882.5 1837.5 875 1842.5 875 1842.5 882.5 1850 882.5 1850 887.5 1842.5 887.5 1842.5 895"/><polygon class="cls-7" points="1522.5 730 1517.5 730 1517.5 722.5 1510 722.5 1510 717.5 1517.5 717.5 1517.5 710 1522.5 710 1522.5 717.5 1530 717.5 1530 722.5 1522.5 722.5 1522.5 730"/><polygon class="cls-7" points="1682.5 730 1677.5 730 1677.5 722.5 1670 722.5 1670 717.5 1677.5 717.5 1677.5 710 1682.5 710 1682.5 717.5 1690 717.5 1690 722.5 1682.5 722.5 1682.5 730"/><polygon class="cls-7" points="1842.5 730 1837.5 730 1837.5 722.5 1830 722.5 1830 717.5 1837.5 717.5 1837.5 710 1842.5 710 1842.5 717.5 1850 717.5 1850 722.5 1842.5 722.5 1842.5 730"/><polygon class="cls-7" points="1522.5 565 1517.5 565 1517.5 557.5 1510 557.5 1510 552.5 1517.5 552.5 1517.5 545 1522.5 545 1522.5 552.5 1530 552.5 1530 557.5 1522.5 557.5 1522.5 565"/><polygon class="cls-7" points="1682.5 565 1677.5 565 1677.5 557.5 1670 557.5 1670 552.5 1677.5 552.5 1677.5 545 1682.5 545 1682.5 552.5 1690 552.5 1690 557.5 1682.5 557.5 1682.5 565"/><polygon class="cls-7" points="1842.5 565 1837.5 565 1837.5 557.5 1830 557.5 1830 552.5 1837.5 552.5 1837.5 545 1842.5 545 1842.5 552.5 1850 552.5 1850 557.5 1842.5 557.5 1842.5 565"/><rect class="cls-1" x="1440" y="960" width="480" height="480"/><rect class="cls-6" x="1440" y="960" width="480" height="480"/><polygon class="cls-4" points="1440 1280 1440 1120 1920 1120 1440 1280"/><polygon class="cls-4" points="1440 1120 1440 960 1920 960 1440 1120"/><polygon class="cls-4" points="1440 1440 1440 1280 1920 1280 1440 1440"/><rect class="cls-1" x="1440" y="1440" width="480" height="480"/><polygon class="cls-6" points="1440 1800 1440 1680 1680 1680 1920 1920 1680 1920 1440 1920 1440 1800"/><polygon class="cls-4" points="1440 1680 1440 1560 1440 1440 1680 1440 1920 1440 1680 1680 1440 1680"/><polygon class="cls-4" points="1920 1680 1920 1800 1920 1920 1680 1680 1920 1680"/><polygon class="cls-6" points="1920 1440 1920 1560 1920 1680 1680 1680 1920 1440"/><rect class="cls-1" x="1920" width="480" height="480"/><rect class="cls-3" x="1920" width="480" height="480"/><path class="cls-4" d="M2400,240c-132.55,0-240-107.45-240-240h240Z"/><path class="cls-4" d="M2160,480H1920V240C2052.55,240,2160,347.45,2160,480Z"/><rect class="cls-1" x="1920" y="480" width="480" height="480"/><rect class="cls-5" x="1920" y="480" width="480" height="480"/><polygon class="cls-2" points="1920 720 1920 960 2160 960 1920 720"/><polygon class="cls-2" points="1920 480 1920 720 2160 720 1920 480"/><rect class="cls-1" x="1920" y="960" width="480" height="480"/><rect class="cls-2" x="1920" y="960" width="480" height="480"/><polygon class="cls-7" points="2160 1200 1920 1440 1920 960 2160 1200"/><polygon class="cls-7" points="2160 1200 2400 960 2400 1440 2160 1200"/><rect class="cls-1" x="1920" y="1440" width="480" height="480"/><rect class="cls-6" x="1920" y="1440" width="480" height="480"/><polygon class="cls-3" points="2400 1920 2160 1920 2400 1680 2400 1920"/><polygon class="cls-3" points="2400 1440 2400 1680 2160 1680 2400 1440"/><polygon class="cls-3" points="2160 1920 1920 1920 2160 1680 2160 1920"/><polygon class="cls-3" points="1920 1680 2160 1440 2160 1680 1920 1680"/><rect class="cls-1" x="2400" width="480" height="480"/><rect class="cls-2" x="2400" width="480" height="480"/><circle class="cls-4" cx="2640" cy="240" r="160"/><rect class="cls-1" x="2400" y="480" width="480" height="480"/><polygon class="cls-5" points="2880 480 2880 600 2720 480 2880 480"/><polygon class="cls-2" points="2880 960 2720 960 2720 840 2880 960"/><polygon class="cls-5" points="2880 840 2880 960 2720 840 2720 720 2880 840"/><polygon class="cls-2" points="2880 600 2880 720 2720 600 2720 480 2880 600"/><polygon class="cls-6" points="2880 720 2880 840 2720 720 2720 600 2880 720"/><polygon class="cls-5" points="2720 480 2720 600 2560 480 2720 480"/><polygon class="cls-2" points="2720 960 2560 960 2560 840 2720 960"/><polygon class="cls-5" points="2720 840 2720 960 2560 840 2560 720 2720 840"/><polygon class="cls-2" points="2720 600 2720 720 2560 600 2560 480 2720 600"/><polygon class="cls-6" points="2720 720 2720 840 2560 720 2560 600 2720 720"/><polygon class="cls-5" points="2560 480 2560 600 2400 480 2560 480"/><polygon class="cls-2" points="2560 960 2400 960 2400 840 2560 960"/><polygon class="cls-5" points="2560 840 2560 960 2400 840 2400 720 2560 840"/><polygon class="cls-2" points="2560 600 2560 720 2400 600 2400 480 2560 600"/><polygon class="cls-6" points="2560 720 2560 840 2400 720 2400 600 2560 720"/><rect class="cls-1" x="2400" y="960" width="480" height="480"/><polygon class="cls-7" points="2720 1200 2400 1440 2400 960 2720 1200"/><polygon class="cls-4" points="2880 1440 2560 1440 2880 1200 2880 1440"/><polygon class="cls-3" points="2880 1200 2560 960 2880 960 2880 1200"/><polygon class="cls-3" points="2560 1440 2400 1440 2720 1200 2880 1200 2560 1440"/><polygon class="cls-4" points="2560 960 2880 1200 2720 1200 2400 960 2560 960"/><rect class="cls-1" x="2400" y="1440" width="480" height="480"/><polygon class="cls-4" points="2880 1560 2880 1680 2640 1680 2400 1440 2640 1440 2880 1440 2880 1560"/><polygon class="cls-6" points="2880 1680 2880 1800 2880 1920 2640 1920 2400 1920 2640 1680 2880 1680"/><polygon class="cls-6" points="2400 1680 2400 1560 2400 1440 2640 1680 2400 1680"/><polygon class="cls-4" points="2400 1920 2400 1800 2400 1680 2640 1680 2400 1920"/></svg>